# xmcd
#
# Track frame offsets: 
#        150
#        37491
#        61179
#        82374
#        111995
#        152186
#        180947
#        210003
#        265822
#
# Disc length: 3894 seconds
#
# Revision: 0
# Processed by: cddbd v1.5.2PL0 Copyright (c) Steve Scherf et al.
# Submitted via: ExactAudioCopy v0.95b3
#
DISCID=790f3409
DTITLE=Brewster Brothers - Brewster Brothers in Concert
DYEAR=2008
DGENRE=Rock and Roll
TTITLE0=Do It Again
TTITLE1=Brother's Keeper
TTITLE2=Lives of Grace
TTITLE3=Take Me Away to Marseilles
TTITLE4=Passing Through
TTITLE5=Shadows Fall
TTITLE6=Keep Your Woman
TTITLE7=Blue Blood
TTITLE8=Hot Dog Rhythm
EXTD=
EXTT0=
EXTT1=
EXTT2=
EXTT3=
EXTT4=
EXTT5=
EXTT6=
EXTT7=
EXTT8=
PLAYORDER=
